<?xml version="1.0" encoding="UTF-8" standalone="no"?>
<!DOCTYPE svg PUBLIC "-//W3C//DTD SVG 1.1//EN" "http://www.w3.org/Graphics/SVG/1.1/DTD/svg11.dtd">
<svg width="100%" height="100%" viewBox="0 0 800 600" version="1.1" xmlns="http://www.w3.org/2000/svg" xmlns:xlink="http://www.w3.org/1999/xlink" xml:space="preserve" xmlns:serif="http://www.serif.com/" style="fill-rule:evenodd;clip-rule:evenodd;stroke-linecap:round;stroke-linejoin:round;stroke-miterlimit:1.5;">
    <g transform="matrix(1.21478,0,0,1.21478,-89.8209,-77.1825)">
        <g transform="matrix(1,0,0,1,-272.065,209.189)">
            <g transform="matrix(111.684,0,0,111.684,440,330)">
                <path d="M0.48,-0.515L0.48,-0.544C0.48,-0.554 0.482,-0.561 0.486,-0.565C0.49,-0.569 0.495,-0.571 0.501,-0.571C0.507,-0.571 0.512,-0.569 0.516,-0.565C0.52,-0.561 0.521,-0.554 0.521,-0.544L0.521,-0.43C0.521,-0.42 0.52,-0.413 0.516,-0.409C0.512,-0.404 0.507,-0.402 0.501,-0.402C0.495,-0.402 0.491,-0.404 0.487,-0.408C0.483,-0.412 0.481,-0.418 0.48,-0.427C0.479,-0.455 0.464,-0.479 0.436,-0.5C0.398,-0.529 0.355,-0.543 0.307,-0.543C0.276,-0.543 0.246,-0.536 0.218,-0.522C0.197,-0.512 0.18,-0.5 0.168,-0.485C0.146,-0.46 0.129,-0.432 0.117,-0.401C0.108,-0.378 0.103,-0.352 0.103,-0.324L0.103,-0.252C0.103,-0.191 0.125,-0.138 0.169,-0.093C0.214,-0.047 0.265,-0.025 0.324,-0.025C0.359,-0.025 0.39,-0.033 0.418,-0.048C0.446,-0.063 0.473,-0.086 0.499,-0.117C0.505,-0.124 0.511,-0.127 0.518,-0.127C0.523,-0.127 0.528,-0.126 0.532,-0.122C0.535,-0.118 0.537,-0.114 0.537,-0.108C0.537,-0.101 0.53,-0.09 0.516,-0.074C0.489,-0.044 0.459,-0.022 0.426,-0.007C0.393,0.009 0.359,0.016 0.325,0.016C0.295,0.016 0.265,0.01 0.234,-0.001C0.211,-0.01 0.192,-0.02 0.176,-0.032C0.161,-0.043 0.142,-0.063 0.12,-0.091C0.098,-0.119 0.082,-0.145 0.074,-0.168C0.066,-0.192 0.062,-0.218 0.062,-0.246L0.062,-0.33C0.062,-0.37 0.073,-0.411 0.094,-0.453C0.116,-0.496 0.146,-0.528 0.183,-0.551C0.221,-0.573 0.262,-0.584 0.306,-0.584C0.373,-0.584 0.432,-0.561 0.48,-0.515Z" style="fill-rule:nonzero;"/>
            </g>
            <g transform="matrix(111.684,0,0,111.684,507.021,330)">
                <path d="M0.551,-0.284C0.551,-0.229 0.54,-0.179 0.518,-0.132C0.495,-0.085 0.465,-0.049 0.426,-0.023C0.387,0.003 0.345,0.016 0.301,0.016C0.235,0.016 0.177,-0.012 0.126,-0.068C0.076,-0.124 0.051,-0.196 0.051,-0.284C0.051,-0.372 0.076,-0.444 0.126,-0.5C0.177,-0.556 0.235,-0.584 0.301,-0.584C0.345,-0.584 0.387,-0.571 0.426,-0.545C0.465,-0.519 0.495,-0.483 0.517,-0.437C0.54,-0.39 0.551,-0.339 0.551,-0.284ZM0.509,-0.284C0.509,-0.351 0.49,-0.411 0.451,-0.464C0.412,-0.517 0.362,-0.543 0.301,-0.543C0.243,-0.543 0.194,-0.518 0.153,-0.468C0.112,-0.417 0.092,-0.356 0.092,-0.284C0.092,-0.208 0.113,-0.146 0.156,-0.097C0.199,-0.049 0.247,-0.025 0.301,-0.025C0.362,-0.025 0.412,-0.051 0.451,-0.104C0.49,-0.157 0.509,-0.217 0.509,-0.284Z" style="fill-rule:nonzero;"/>
            </g>
            <g transform="matrix(111.684,0,0,111.684,574.042,330)">
                <path d="M0.327,-0.171L0.28,-0.171L0.123,-0.53L0.115,-0.53L0.115,-0.041L0.19,-0.041C0.2,-0.041 0.207,-0.039 0.211,-0.035C0.216,-0.032 0.218,-0.027 0.218,-0.021C0.218,-0.015 0.216,-0.01 0.211,-0.006C0.207,-0.002 0.2,-0 0.19,-0L0.039,-0C0.029,-0 0.022,-0.002 0.018,-0.006C0.014,-0.01 0.012,-0.015 0.012,-0.021C0.012,-0.027 0.014,-0.032 0.018,-0.035C0.022,-0.039 0.029,-0.041 0.039,-0.041L0.074,-0.041L0.074,-0.53L0.048,-0.53C0.038,-0.53 0.031,-0.532 0.027,-0.536C0.023,-0.54 0.021,-0.545 0.021,-0.551C0.021,-0.557 0.023,-0.562 0.027,-0.566C0.031,-0.569 0.038,-0.571 0.048,-0.571L0.148,-0.571L0.304,-0.218L0.457,-0.571L0.557,-0.571C0.567,-0.571 0.574,-0.569 0.579,-0.566C0.583,-0.562 0.585,-0.557 0.585,-0.551C0.585,-0.545 0.583,-0.54 0.579,-0.536C0.574,-0.532 0.567,-0.53 0.557,-0.53L0.532,-0.53L0.532,-0.041L0.566,-0.041C0.576,-0.041 0.583,-0.039 0.587,-0.035C0.592,-0.032 0.594,-0.027 0.594,-0.021C0.594,-0.015 0.592,-0.01 0.587,-0.006C0.583,-0.002 0.576,-0 0.566,-0L0.415,-0C0.405,-0 0.398,-0.002 0.394,-0.006C0.389,-0.01 0.387,-0.015 0.387,-0.021C0.387,-0.027 0.389,-0.032 0.394,-0.035C0.398,-0.039 0.405,-0.041 0.415,-0.041L0.491,-0.041L0.491,-0.53L0.482,-0.53L0.327,-0.171Z" style="fill-rule:nonzero;"/>
            </g>
            <g transform="matrix(111.684,0,0,111.684,641.063,330)">
                <path d="M0.211,-0.234L0.211,-0.041L0.352,-0.041C0.361,-0.041 0.368,-0.039 0.373,-0.035C0.377,-0.032 0.379,-0.027 0.379,-0.021C0.379,-0.015 0.377,-0.01 0.373,-0.006C0.368,-0.002 0.361,-0 0.352,-0L0.115,-0C0.105,-0 0.098,-0.002 0.094,-0.006C0.09,-0.01 0.087,-0.015 0.087,-0.021C0.087,-0.027 0.09,-0.032 0.094,-0.035C0.098,-0.039 0.105,-0.041 0.115,-0.041L0.17,-0.041L0.17,-0.53L0.115,-0.53C0.105,-0.53 0.098,-0.532 0.094,-0.536C0.09,-0.54 0.087,-0.545 0.087,-0.551C0.087,-0.557 0.09,-0.562 0.094,-0.566C0.098,-0.569 0.105,-0.571 0.115,-0.571L0.353,-0.571C0.409,-0.571 0.455,-0.555 0.491,-0.521C0.527,-0.488 0.544,-0.449 0.544,-0.405C0.544,-0.378 0.539,-0.355 0.527,-0.333C0.516,-0.312 0.502,-0.296 0.485,-0.284C0.461,-0.265 0.436,-0.252 0.41,-0.244C0.391,-0.237 0.367,-0.234 0.339,-0.234L0.211,-0.234ZM0.211,-0.275L0.342,-0.275C0.372,-0.275 0.4,-0.282 0.427,-0.296C0.454,-0.309 0.473,-0.326 0.485,-0.345C0.497,-0.365 0.503,-0.385 0.503,-0.405C0.503,-0.437 0.49,-0.466 0.462,-0.492C0.434,-0.517 0.399,-0.53 0.357,-0.53L0.211,-0.53L0.211,-0.275Z" style="fill-rule:nonzero;"/>
            </g>
            <g transform="matrix(111.684,0,0,111.684,708.085,330)">
                <path d="M0.435,-0.191L0.166,-0.191L0.11,-0.041L0.189,-0.041C0.199,-0.041 0.206,-0.039 0.21,-0.035C0.214,-0.032 0.216,-0.027 0.216,-0.021C0.216,-0.015 0.214,-0.01 0.21,-0.006C0.206,-0.002 0.199,-0 0.189,-0L0.036,-0C0.026,-0 0.019,-0.002 0.015,-0.006C0.01,-0.01 0.008,-0.015 0.008,-0.021C0.008,-0.027 0.01,-0.032 0.015,-0.035C0.019,-0.039 0.026,-0.041 0.036,-0.041L0.067,-0.041L0.249,-0.53L0.127,-0.53C0.118,-0.53 0.111,-0.532 0.106,-0.536C0.102,-0.54 0.1,-0.545 0.1,-0.551C0.1,-0.557 0.102,-0.562 0.106,-0.566C0.111,-0.569 0.118,-0.571 0.127,-0.571L0.334,-0.571L0.534,-0.041L0.566,-0.041C0.576,-0.041 0.583,-0.039 0.587,-0.035C0.591,-0.032 0.593,-0.027 0.593,-0.021C0.593,-0.015 0.591,-0.01 0.587,-0.006C0.583,-0.002 0.576,-0 0.566,-0L0.413,-0C0.403,-0 0.396,-0.002 0.392,-0.006C0.387,-0.01 0.385,-0.015 0.385,-0.021C0.385,-0.027 0.387,-0.032 0.392,-0.035C0.396,-0.039 0.403,-0.041 0.413,-0.041L0.491,-0.041L0.435,-0.191ZM0.419,-0.232L0.306,-0.53L0.291,-0.53L0.181,-0.232L0.419,-0.232Z" style="fill-rule:nonzero;"/>
            </g>
            <g transform="matrix(111.684,0,0,111.684,775.106,330)">
                <path d="M0.501,-0L0.448,-0L0.146,-0.511L0.146,-0.041L0.222,-0.041C0.232,-0.041 0.239,-0.039 0.243,-0.035C0.247,-0.032 0.25,-0.027 0.25,-0.021C0.25,-0.015 0.247,-0.01 0.243,-0.006C0.239,-0.002 0.232,-0 0.222,-0L0.071,-0C0.061,-0 0.054,-0.002 0.049,-0.006C0.045,-0.01 0.043,-0.015 0.043,-0.021C0.043,-0.027 0.045,-0.032 0.049,-0.035C0.054,-0.039 0.061,-0.041 0.071,-0.041L0.105,-0.041L0.105,-0.53L0.05,-0.53C0.04,-0.53 0.033,-0.532 0.029,-0.536C0.025,-0.54 0.022,-0.545 0.022,-0.551C0.022,-0.557 0.025,-0.562 0.029,-0.566C0.033,-0.569 0.04,-0.571 0.05,-0.571L0.157,-0.571L0.46,-0.059L0.46,-0.53L0.384,-0.53C0.375,-0.53 0.368,-0.532 0.363,-0.536C0.359,-0.54 0.357,-0.545 0.357,-0.551C0.357,-0.557 0.359,-0.562 0.363,-0.566C0.367,-0.569 0.374,-0.571 0.384,-0.571L0.536,-0.571C0.545,-0.571 0.552,-0.569 0.557,-0.566C0.561,-0.562 0.563,-0.557 0.563,-0.551C0.563,-0.545 0.561,-0.54 0.557,-0.536C0.552,-0.532 0.545,-0.53 0.536,-0.53L0.501,-0.53L0.501,-0Z" style="fill-rule:nonzero;"/>
            </g>
            <g transform="matrix(111.684,0,0,111.684,842.127,330)">
                <path d="M0.322,-0.258L0.322,-0.041L0.428,-0.041C0.438,-0.041 0.445,-0.039 0.449,-0.035C0.453,-0.032 0.456,-0.027 0.456,-0.021C0.456,-0.015 0.453,-0.01 0.449,-0.006C0.445,-0.002 0.438,-0 0.428,-0L0.174,-0C0.164,-0 0.157,-0.002 0.153,-0.006C0.149,-0.01 0.146,-0.015 0.146,-0.021C0.146,-0.027 0.149,-0.032 0.153,-0.035C0.157,-0.039 0.164,-0.041 0.174,-0.041L0.28,-0.041L0.28,-0.258L0.1,-0.53L0.076,-0.53C0.066,-0.53 0.059,-0.532 0.055,-0.536C0.05,-0.54 0.048,-0.545 0.048,-0.551C0.048,-0.557 0.05,-0.562 0.055,-0.566C0.059,-0.569 0.066,-0.571 0.076,-0.571L0.188,-0.571C0.198,-0.571 0.205,-0.569 0.209,-0.566C0.214,-0.562 0.216,-0.557 0.216,-0.551C0.216,-0.545 0.214,-0.54 0.209,-0.536C0.205,-0.532 0.198,-0.53 0.188,-0.53L0.148,-0.53L0.301,-0.299L0.451,-0.53L0.411,-0.53C0.401,-0.53 0.394,-0.532 0.39,-0.536C0.385,-0.54 0.383,-0.545 0.383,-0.551C0.383,-0.557 0.385,-0.562 0.39,-0.566C0.394,-0.569 0.401,-0.571 0.411,-0.571L0.523,-0.571C0.533,-0.571 0.54,-0.569 0.544,-0.566C0.549,-0.562 0.551,-0.557 0.551,-0.551C0.551,-0.545 0.549,-0.54 0.544,-0.536C0.54,-0.532 0.533,-0.53 0.523,-0.53L0.499,-0.53L0.322,-0.258Z" style="fill-rule:nonzero;"/>
            </g>
        </g>
        <g transform="matrix(1,0,0,1,167.691,-20)">
            <path d="M140,240L140,400L99.062,400L99.062,100L260,100L260,140L140,140L140,200L360,200L360,240L280,240L360,400C407.828,511.302 301.195,484.268 240,400L280,400C329.005,447.338 339.345,442.804 320,400L238.199,240L140,240Z" style="fill:rgb(64,119,146);stroke:black;stroke-width:0.82px;"/>
        </g>
    </g>
</svg>
